<?xml version="1.0" encoding="UTF-8"?>
<svg version="1.1" xmlns="http://www.w3.org/2000/svg" width="111" height="103">
<path d="M0 0 C36.63 0 73.26 0 111 0 C111 33.99 111 67.98 111 103 C74.37 103 37.74 103 0 103 C0 69.01 0 35.02 0 0 Z " fill="#121927" transform="translate(0,0)"/>
<path d="M0 0 C2.83203125 0.03255208 5.6640625 0.06510417 8.49609375 0.09765625 C12.03763105 9.08008713 15.27332061 18.11873239 18.30859375 27.28515625 C18.91864258 29.10370117 18.91864258 29.10370117 19.54101562 30.95898438 C19.92451172 32.11205078 20.30800781 33.26511719 20.703125 34.453125 C21.04835205 35.49106201 21.3935791 36.52899902 21.74926758 37.59838867 C22.49609375 40.09765625 22.49609375 40.09765625 22.49609375 42.09765625 C18.86609375 42.09765625 15.23609375 42.09765625 11.49609375 42.09765625 C9.49609375 37.09765625 9.49609375 37.09765625 9.49609375 34.09765625 C5.20609375 34.09765625 0.91609375 34.09765625 -3.50390625 34.09765625 C-3.99890625 36.57265625 -3.99890625 36.57265625 -4.50390625 39.09765625 C-4.83390625 40.08765625 -5.16390625 41.07765625 -5.50390625 42.09765625 C-9.13390625 42.09765625 -12.76390625 42.09765625 -16.50390625 42.09765625 C-13.39108142 31.48212542 -10.1768154 20.91003089 -6.69140625 10.41015625 C-6.38968506 9.49596924 -6.08796387 8.58178223 -5.77709961 7.63989258 C-5.49487549 6.7970874 -5.21265137 5.95428223 -4.921875 5.0859375 C-4.54712036 3.96505737 -4.54712036 3.96505737 -4.16479492 2.8215332 C-3.14053928 0.14984164 -2.9737319 0.11598018 0 0 Z " fill="#F1F1F2" transform="translate(52.50390625,13.90234375)"/>
<path d="M0 0 C1.89453125 0.82421875 1.89453125 0.82421875 3.89453125 2.82421875 C10.07654728 5.10887685 16.35476125 5.41615428 22.89453125 5.82421875 C22.89453125 5.16421875 22.89453125 4.50421875 22.89453125 3.82421875 C29.51953125 -0.17578125 29.51953125 -0.17578125 32.89453125 -0.17578125 C34.75390625 1.43359375 34.75390625 1.43359375 36.64453125 3.57421875 C37.27875 4.2703125 37.91296875 4.96640625 38.56640625 5.68359375 C39.89453125 7.82421875 39.89453125 7.82421875 39.75 9.96484375 C38.33566115 13.03893184 35.76264473 14.28983705 32.89453125 15.82421875 C32.22679687 16.200625 31.5590625 16.57703125 30.87109375 16.96484375 C22.29106001 21.12308536 11.9860407 21.25706437 2.7890625 19.09375 C-2.31156744 17.20319881 -6.17217341 14.55049855 -10.10546875 10.82421875 C-9.52151669 7.31272034 -8.2726723 5.53390117 -5.79296875 3.01171875 C-5.19871094 2.38652344 -4.60445312 1.76132813 -3.9921875 1.1171875 C-2.10546875 -0.17578125 -2.10546875 -0.17578125 0 0 Z " fill="#F4F4F5" transform="translate(40.10546875,65.17578125)"/>
<path d="M0 0 C1.83203125 0.82421875 1.83203125 0.82421875 2.83203125 2.82421875 C2.11015625 2.88609375 1.38828125 2.94796875 0.64453125 3.01171875 C-3.09213285 4.09119949 -4.69449138 5.86978744 -7.16796875 8.82421875 C-8.02916009 10.99768443 -8.02916009 10.99768443 -8.16796875 12.82421875 C-8.82796875 12.16421875 -9.48796875 11.50421875 -10.16796875 10.82421875 C-9.85568971 7.31652627 -8.27036404 5.46798269 -5.85546875 3.01171875 C-5.26121094 2.38652344 -4.66695312 1.76132813 -4.0546875 1.1171875 C-2.16796875 -0.17578125 -2.16796875 -0.17578125 0 0 Z " fill="#C3C5C8" transform="translate(40.16796875,65.17578125)"/>
<path d="M0 0 C0.66 0.33 1.32 0.66 2 1 C2.40729228 3.32156597 2.74438677 5.6568787 3 8 C1.35 8 -0.3 8 -2 8 C-1.125 1.125 -1.125 1.125 0 0 Z " fill="#4A4F5A" transform="translate(55,31)"/>
</svg>
